<?xml version="1.0" encoding="UTF-8" standalone="no"?>
<svg
   xmlns:dc="http://purl.org/dc/elements/1.1/"
   xmlns:cc="http://creativecommons.org/ns#"
   xmlns:rdf="http://www.w3.org/1999/02/22-rdf-syntax-ns#"
   xmlns:svg="http://www.w3.org/2000/svg"
   xmlns="http://www.w3.org/2000/svg"
   xmlns:sodipodi="http://sodipodi.sourceforge.net/DTD/sodipodi-0.dtd"
   xmlns:inkscape="http://www.inkscape.org/namespaces/inkscape"
   version="1.0"
   width="1280pt"
   height="624.96326pt"
   viewBox="0 0 1280 624.96326"
   preserveAspectRatio="xMidYMid meet"
   id="svg4214"
   inkscape:version="0.91 r13725"
   sodipodi:docname="plan.svg">
  <metadata
     id="metadata4224">
    <rdf:RDF>
      <cc:Work
         rdf:about="">
        <dc:format>image/svg+xml</dc:format>
        <dc:type
           rdf:resource="http://purl.org/dc/dcmitype/StillImage" />
        <dc:title></dc:title>
      </cc:Work>
    </rdf:RDF>
  </metadata>
  <defs
     id="defs4222">
    <clipPath
       clipPathUnits="userSpaceOnUse"
       id="clipPath4229">
      <rect
         style="color:#000000;clip-rule:nonzero;display:inline;overflow:visible;visibility:visible;opacity:1;isolation:auto;mix-blend-mode:normal;color-interpolation:sRGB;color-interpolation-filters:linearRGB;solid-color:#000000;solid-opacity:1;fill:none;fill-opacity:1;fill-rule:nonzero;stroke:none;stroke-width:3;stroke-linecap:round;stroke-linejoin:round;stroke-miterlimit:4;stroke-dasharray:none;stroke-dashoffset:0;stroke-opacity:1;color-rendering:auto;image-rendering:auto;shape-rendering:auto;text-rendering:auto;enable-background:accumulate"
         id="rect4231"
         width="1319.7627"
         height="628.52631"
         x="-4.2756891"
         y="-3.5630736" />
    </clipPath>
  </defs>
  <sodipodi:namedview
     pagecolor="#ffffff"
     bordercolor="#666666"
     borderopacity="1"
     objecttolerance="10"
     gridtolerance="10"
     guidetolerance="10"
     inkscape:pageopacity="0"
     inkscape:pageshadow="2"
     inkscape:window-width="2560"
     inkscape:window-height="1371"
     id="namedview4220"
     showgrid="false"
     fit-margin-top="0"
     fit-margin-left="0"
     fit-margin-right="0"
     fit-margin-bottom="0"
     inkscape:zoom="0.56131301"
     inkscape:cx="800"
     inkscape:cy="248.07904"
     inkscape:window-x="0"
     inkscape:window-y="0"
     inkscape:window-maximized="1"
     inkscape:current-layer="svg4214" />
  <path
     style="fill:#000000;stroke:none"
     inkscape:connector-curvature="0"
     id="path4218"
     d="m 332,55 0,55 -69.5,0 -69.5,0 0,-32.1 c 0,-36.2 -0.1,-37 -7.3,-41.7 L 181.6,33.5 90.8,33.2 0,33 0,39.5 0,46 88.8,46 c 67.7,0 89.1,0.3 90,1.2 0.9,0.9 1.2,9.4 1.2,32 l 0,30.8 -90,0 -90,0 0,6.5 0,6.5 90,0 90,0 0,93 0,93 -4.5,0 c -4.5,0 -4.5,0.1 -3.8,2.7 0.3,1.6 3.9,15.6 7.8,31.3 7,27.6 7.2,28.4 8.3,24.5 2.4,-8.7 14.2,-56.5 14.2,-57.5 0,-0.5 -2,-1 -4.5,-1 l -4.5,0 0,-93 0,-93 69.5,0 69.5,0 0,43.3 c 0,43.4 0,43.4 2.3,47.7 1.6,3 3.7,5.1 6.7,6.7 4.2,2.2 5.2,2.3 29.2,2.3 l 24.8,0 -0.2,31.7 -0.3,31.8 -59.5,0.5 c -55.4,0.5 -59.7,0.6 -62.5,2.3 -1.6,1 -3.9,3.1 -5,4.5 -1.9,2.6 -2,4.5 -2.3,54.9 l -0.3,52.3 -132.4,0 -132.5,0 0,6.5 0,6.5 132.3,0.2 132.2,0.3 0.3,19.7 0.2,19.8 -38,0 -38,0 0,-3.9 c 0,-2.2 -0.3,-4.2 -0.7,-4.4 -0.5,-0.2 -14.5,3.1 -31.3,7.3 -29.5,7.5 -30.4,7.7 -26.5,8.8 8.6,2.4 56.5,14.2 57.5,14.2 0.5,0 1,-2 1,-4.5 l 0,-4.5 37.8,0.2 37.7,0.3 0,42.5 0,42.5 -66.5,0 -66.5,0 -0.3,-4.3 c -0.2,-2.3 -0.5,-4.2 -0.8,-4.2 -1,0 -57,14.1 -58.7,14.8 -1.1,0.4 9,3.4 28.8,8.3 l 30.5,7.6 0,-4.3 0,-4.4 67,0 67.1,0 -0.3,12.8 -0.3,12.7 -132.2,0.3 L 0,592 l 0,6.5 0,6.5 132.5,0 132.5,0 -0.2,41.2 -0.3,41.3 -132.2,0.3 L 0,688 l 0,6.5 0,6.5 132.5,0 132.5,0 0,50.6 c 0,32.9 -0.4,51.2 -1,52.5 -1.1,1.9 -3.6,1.9 -132.5,1.9 L 0,806 l 0,6.5 0,6.5 131.8,0 131.8,0 4.4,-2.3 c 5.1,-2.6 7.8,-5.9 9,-11.2 0.5,-2.1 0.6,-26.4 0.3,-54.1 l -0.6,-50.4 29.6,0 29.7,0 0,4 c 0,2.5 0.5,4 1.3,4 2.1,0.1 59.7,-14.4 59.7,-15 0,-0.6 -57.6,-15.1 -59.7,-15 -0.9,0 -1.3,1.6 -1.3,4.5 l 0,4.5 -29.2,-0.2 -29.3,-0.3 -0.3,-41.3 -0.2,-41.2 104.2,0.2 104.3,0.3 0.3,84.7 0.2,84.8 -68,0 -68,0 0,-4.5 c 0,-2.9 -0.4,-4.5 -1.2,-4.5 -2.2,-0.1 -59.8,14.4 -59.8,15 0,0.6 57.6,15.1 59.8,15 0.7,0 1.2,-1.5 1.2,-4 l 0,-4 68,0 68,0 0,32.5 0,32.5 6.5,0 6.5,0 0,-32.5 0,-32.4 57.8,-0.3 57.9,-0.3 3.6,-2.8 c 7.3,-5.6 6.7,18.8 6.7,-260.7 0,-251 0,-252 2,-254 2,-2 3,-2 113.3,-1.8 l 111.2,0.3 0.3,74.2 0.2,74.3 -61,0 -61,0 0,-4.5 c 0,-2.5 -0.2,-4.5 -0.5,-4.5 -1.2,0 -57.1,14.1 -58.9,14.8 -1.4,0.6 6.4,2.9 27,8.1 15.9,3.9 29.7,7.4 30.7,7.7 1.4,0.5 1.7,-0.1 1.7,-4 l 0,-4.6 61,0 61,0 0,28 0,28 -4.5,0 c -2.5,0 -4.5,0.5 -4.5,1 0,1.3 13.8,56.9 14.7,59 0.3,0.8 4,-12.2 8.2,-29 l 7.7,-30.5 -4.3,-0.3 -4.3,-0.3 0,-28 0,-27.9 24.5,0 24.5,0 0,86.2 0,86.1 2.5,4.2 c 4.5,7.8 5.3,8 43.3,8.3 l 33.2,0.3 0,41 0,40.9 -107.5,0 -107.5,0 0,-4.6 c 0,-3.9 -0.3,-4.5 -1.7,-4 -1,0.3 -14.8,3.8 -30.7,7.7 -20.6,5.2 -28.4,7.5 -27,8.1 1.8,0.7 57.7,14.8 58.9,14.8 0.3,0 0.5,-2 0.5,-4.5 l 0,-4.5 107.5,0 107.5,0 0,17 0,17 -13,0 -13,0 0,-4.5 c 0,-2.5 -0.5,-4.5 -1,-4.5 -1.3,0 -56.9,13.8 -59,14.7 -0.8,0.3 12.2,4 29,8.2 l 30.5,7.7 0.3,-4.3 0.3,-4.3 13,0 12.9,0 0,22.5 0,22.5 -155.9,0 c -140.4,0 -156.1,-0.2 -157.5,-1.6 -1.4,-1.4 -1.6,-9.6 -1.6,-75 l 0,-73.4 117,0 117,0 0,4.5 c 0,2.5 0.2,4.5 0.5,4.5 1.2,0 57.1,-14.1 58.9,-14.8 1.4,-0.6 -6.4,-2.9 -27,-8.1 -15.9,-3.9 -29.7,-7.4 -30.6,-7.7 -1.5,-0.5 -1.8,0.1 -1.8,4 l 0,4.6 -117,0 -117,0 0.2,-50.2 0.3,-50.3 4.3,-0.3 c 2.3,-0.2 4.2,-0.5 4.2,-0.8 0,-1.1 -14.1,-57 -14.8,-58.7 -0.5,-1.2 -3.3,8.6 -8.3,28.5 l -7.6,30.3 4.4,0.3 4.3,0.3 0,131.2 0,131.3 2.3,4.4 c 1.2,2.5 3.7,5.5 5.6,6.7 l 3.4,2.3 158.3,0 158.4,0 0,19.5 0,19.5 6.5,0 6.5,0 0,-19.5 0,-19.5 87.9,0 c 78.6,0 88.1,0.2 89.5,1.6 1.3,1.3 1.6,4.5 1.6,19.5 l 0,17.9 6.5,0 6.5,0 0,-17.3 c -0.1,-23.3 -1.3,-27.6 -9.1,-32.2 -3.3,-2 -4.9,-2 -93.1,-1.6 l -89.8,0.3 0,-22.6 0,-22.6 137,0 137,0 0,-6.5 0,-6.5 -137,0 -137,0 0,-16.9 0,-17 18.9,-0.3 c 21,-0.3 22,-0.6 26.9,-7.8 2.2,-3.3 2.2,-3.4 2.2,-45.1 l 0,-41.9 113,0 113,0 0,-6.5 0,-6.5 -113,0 -113,0 0.2,-166.8 0.3,-166.7 40.2,-0.5 c 38.6,-0.5 40.3,-0.6 42.9,-2.6 1.5,-1.1 3.7,-3.3 4.8,-4.8 2,-2.6 2.1,-4.2 2.4,-36.2 l 0.3,-33.4 20.9,0 21,0 0,110 0,110 -4.6,0 c -3.3,0 -4.5,0.4 -4.1,1.2 0.2,0.7 3.7,14.5 7.8,30.6 4.9,19.8 7.6,28.8 8.1,27.5 0.7,-1.7 14.8,-57.6 14.8,-58.8 0,-0.3 -2,-0.5 -4.5,-0.5 l -4.5,0 0,-110 0,-110 40,0 40,0 0,-6.5 0,-6.5 -39.9,0 -40,0 -0.3,-16.4 c -0.3,-17.9 -0.7,-19.2 -7.2,-24 -2.5,-2 -4.3,-2.1 -25.2,-2.4 l -22.4,-0.3 0,-67.5 0,-67.4 -6.5,0 -6.5,0 0,67.5 0,67.5 -83.5,0 -83.5,0 0,-67.5 0,-67.5 -6.5,0 -6.5,0 0,67.5 0,67.5 -134.3,0 c -103.1,0 -134.6,-0.3 -135.5,-1.2 -0.9,-0.9 -1.2,-12.2 -1.2,-44.5 l 0,-43.3 117.8,-0.2 117.7,-0.3 3.4,-2.4 c 6,-4.3 7.1,-8.4 7.1,-26.9 L 927,0 920.5,0 914,0 913.8,16.2 913.5,32.5 797,32.8 680.5,33 680.8,16.5 681.1,0 674.5,0 668,0 668,16.5 668,33 566.5,33 465,33 465,16.5 465,0 l -6.5,0 -6.5,0 0,16.4 0,16.4 -22.8,0.4 c -22.8,0.3 -22.9,0.3 -26.9,3 -7.7,5.1 -7.8,6 -7.5,42 l 0.3,31.8 -25,0 -25.1,0 0,-55 0,-55 -6.5,0 -6.5,0 0,55 z m 120,23 0,32 -22.5,0 -22.5,0 0,-30.4 c 0,-26.4 0.2,-30.7 1.6,-32 1.3,-1.4 4.8,-1.6 22.5,-1.6 l 20.9,0 0,32 z m 216,12.6 c 0,50.2 -0.1,49.3 7.3,54.2 l 4.1,2.7 136.3,0.3 136.3,0.2 0,12 0,12 -4.6,0 c -3.9,0 -4.5,0.3 -4,1.7 0.3,1 3.8,14.8 7.7,30.7 5.2,20.6 7.5,28.4 8.1,27 0.7,-1.8 14.8,-57.7 14.8,-58.9 0,-0.3 -2,-0.5 -4.5,-0.5 l -4.5,0 0,-12 0,-12 83.5,0 83.5,0 0,15 0,15 -39.1,0 c -38.5,0 -39.2,0 -43.1,2.2 -2.1,1.2 -4.9,3.8 -6.1,5.8 -2.1,3.4 -2.2,4.4 -2.4,36.5 l -0.3,33 -87.9,0.3 -87.9,0.2 -0.4,-16.7 c -0.3,-13.1 -0.7,-17.5 -2,-19.8 -2.1,-3.9 -5.6,-7.1 -9.1,-8.4 -2,-0.8 -54.8,-1.1 -172.8,-1.1 l -169.9,0 0,-40.8 c -0.1,-22.4 -0.5,-42.7 -0.9,-45.1 -1,-5.2 -3.6,-8.9 -8.2,-11.6 -3,-1.7 -5.6,-2 -20.1,-2.3 l -16.8,-0.4 0,-31.9 0,-31.9 101.5,0 101.5,0 0,44.6 z m -273,75.9 0,43.5 -23.8,0 c -17.2,0 -24.1,-0.3 -25,-1.2 -0.9,-0.9 -1.2,-11.9 -1.2,-43.5 l 0,-42.3 25,0 25,0 0,43.5 z m 57,0 0,43.5 -22.5,0 -22.5,0 0,-42.8 c 0,-23.6 0.3,-43.2 0.7,-43.5 0.3,-0.4 10.5,-0.7 22.5,-0.7 l 21.8,0 0,43.5 z m 44.2,-42.2 c 1,1.1 1.2,9.6 1,43.5 l -0.2,42.2 -16,0 -16,0 0,-43.5 0,-43.5 14.9,0 c 11.1,0 15.3,0.3 16.3,1.3 z m 690.6,38.9 0.3,14.8 -21.1,0 -21,0 0,-15 0,-15 20.8,0.2 20.7,0.3 0.3,14.7 z m -54.8,59.3 c 0,24.3 -0.3,31.7 -1.2,32 -0.7,0.3 -18.2,0.6 -38.8,0.7 l -37.5,0.3 -0.3,-30.9 c -0.2,-21.9 0.1,-31.3 0.9,-32.2 0.9,-1.1 8.2,-1.4 39,-1.4 l 37.9,0 0,31.5 z m -680.2,32.2 -0.3,31.8 -22,0 -22,0 -0.3,-31.8 -0.2,-31.7 22.5,0 22.5,0 -0.2,31.7 z m 45.7,49.8 0,81.5 -4.2,0 c -2.8,0 -4.3,0.5 -4.3,1.2 -0.1,2.2 14.4,59.8 15,59.8 0.6,0 15.1,-57.6 15,-59.8 0,-0.7 -1.5,-1.2 -4.2,-1.2 l -4.3,0 0,-81.5 0,-81.5 169.7,0 c 168.3,0 169.7,0 170.8,2 0.6,1.2 0.9,7.5 0.8,16.2 l -0.3,14.3 -114,0.5 c -110.5,0.5 -114.2,0.6 -117,2.4 -3.5,2.3 -5.2,4.2 -6.6,7.6 -0.8,1.7 -1,79.4 -0.9,253.7 0.1,179 -0.2,251.8 -1,253.3 -1.1,2 -1.8,2 -57,2 l -56,0 0,-85.9 0,-85.8 -2.3,-3.4 c -1.2,-1.8 -3.8,-4.4 -5.6,-5.6 l -3.4,-2.3 -105.3,0 -105.4,0 0,-13 0,-12.9 59.3,-0.3 c 57.1,-0.3 59.3,-0.4 62.6,-2.3 1.9,-1.1 4.3,-3.3 5.5,-4.8 2,-2.8 2.1,-4.1 2.6,-47 l 0.5,-44.2 23,-0.5 c 25.7,-0.6 27.5,-1 31.8,-8 l 2.2,-3.5 0.3,-116.3 0.2,-116.2 16.3,0 16.2,0 0,81.5 z M 1041,435 l 0,166.5 -17.5,0.3 -17.5,0.2 0,-86.2 0,-86.3 -2.3,-4 c -1.3,-2.2 -4,-4.9 -6.2,-6.2 -3.9,-2.2 -4.6,-2.3 -37.2,-2.3 l -33.3,0 0,-39 0,-39 3.9,0 c 2.2,0 4.2,-0.3 4.4,-0.8 0.2,-0.4 -3.1,-14.4 -7.3,-31.2 -7.5,-29.5 -7.7,-30.4 -8.8,-26.5 -2.4,8.6 -14.2,56.5 -14.2,57.5 0,0.5 2,1 4.5,1 l 4.5,0 0,39 0,39 -24.5,0 -24.5,0 0,-74.5 0,-74.5 88,0.2 88,0.3 0,166.5 z m -646,-58 0,77 -59,0 -59,0 0.2,-19.8 0.3,-19.7 17.8,-0.3 17.7,-0.2 0,4.5 c 0,2.5 0.5,4.5 1,4.5 1.9,0 58.5,-14.3 59.2,-14.9 0.5,-0.4 -12.4,-4 -28.5,-8 -16,-4.1 -29.8,-7.6 -30.4,-7.8 -0.9,-0.4 -1.3,0.8 -1.3,4.1 l 0,4.6 -18,0 -18,0 0,-49.3 c 0,-37 0.3,-49.6 1.2,-50.5 0.9,-0.9 15.4,-1.2 59,-1.2 l 57.8,0 0,77 z m 57,-1.2 c 0,57.6 -0.3,76.1 -1.2,77 -0.9,0.9 -7.3,1.2 -22.5,1.2 l -21.3,0 0,-77 0,-77 22.5,0 22.5,0 0,75.8 z m 539.4,54.8 c 1.4,0.6 1.6,9.1 1.6,86 l 0,85.4 -31.8,0 c -23.4,0 -32.1,-0.3 -33,-1.2 -0.9,-0.9 -1.2,-21.4 -1.2,-86 l 0,-84.8 31.4,0 c 17.3,0 32.1,0.3 33,0.6 z M 395,508.4 c 0,36.4 -0.2,41.6 -1.6,43 -1.4,1.4 -7.7,1.6 -58.7,1.4 l -57.2,-0.3 -0.3,-42.8 -0.2,-42.7 59,0 59,0 0,41.4 z m 646.3,146.3 c -0.2,21.9 -0.5,40.3 -0.7,41 -0.4,1 -4.6,1.3 -17.6,1.3 l -17,0 0,-41 0,-41 17.8,0 17.7,0 -0.2,39.7 z"
     clip-path="url(#clipPath4229)" />
</svg>
