<?xml version="1.0" encoding="UTF-8" standalone="no"?>
<!-- Created with Inkscape (http://www.inkscape.org/) -->

<svg
   xmlns:dc="http://purl.org/dc/elements/1.1/"
   xmlns:cc="http://creativecommons.org/ns#"
   xmlns:rdf="http://www.w3.org/1999/02/22-rdf-syntax-ns#"
   xmlns:svg="http://www.w3.org/2000/svg"
   xmlns="http://www.w3.org/2000/svg"
   xmlns:sodipodi="http://sodipodi.sourceforge.net/DTD/sodipodi-0.dtd"
   xmlns:inkscape="http://www.inkscape.org/namespaces/inkscape"
   width="124.98711mm"
   height="31.221733mm"
   viewBox="0 0 442.8677 110.62819"
   id="svg4296"
   version="1.1"
   inkscape:version="0.91 r13725"
   sodipodi:docname="logo-white.svg">
  <defs
     id="defs4298" />
  <sodipodi:namedview
     id="base"
     pagecolor="#ffffff"
     bordercolor="#666666"
     borderopacity="1.0"
     inkscape:pageopacity="0.0"
     inkscape:pageshadow="2"
     inkscape:zoom="0.35"
     inkscape:cx="46.433845"
     inkscape:cy="486.74271"
     inkscape:document-units="px"
     inkscape:current-layer="layer1"
     showgrid="false"
     fit-margin-top="0"
     fit-margin-left="0"
     fit-margin-right="0"
     fit-margin-bottom="0"
     inkscape:window-width="2560"
     inkscape:window-height="1371"
     inkscape:window-x="0"
     inkscape:window-y="0"
     inkscape:window-maximized="1" />
  <metadata
     id="metadata4301">
    <rdf:RDF>
      <cc:Work
         rdf:about="">
        <dc:format>image/svg+xml</dc:format>
        <dc:type
           rdf:resource="http://purl.org/dc/dcmitype/StillImage" />
        <dc:title></dc:title>
      </cc:Work>
    </rdf:RDF>
  </metadata>
  <g
     inkscape:label="Layer 1"
     inkscape:groupmode="layer"
     id="layer1"
     transform="translate(404.29099,-908.47673)">
    <g
       style="font-style:normal;font-weight:normal;font-size:138.2849884px;line-height:125%;font-family:sans-serif;letter-spacing:0px;word-spacing:0px;fill:#ffffff;fill-opacity:1;stroke:none;stroke-width:1px;stroke-linecap:butt;stroke-linejoin:miter;stroke-opacity:1"
       id="text4204">
      <path
         d="m -368.6134,1019.1049 q -7.32912,0 -13.82852,-2.0743 -6.49941,-2.2125 -11.33939,-7.0525 -4.83998,-4.9783 -7.74397,-12.86053 -2.76571,-7.88226 -2.76571,-19.49822 0,-11.61596 2.76571,-19.49822 2.90399,-7.88226 7.74397,-12.72224 4.83998,-4.97827 11.33939,-7.05255 6.4994,-2.21256 13.82852,-2.21256 l 22.40221,0 0,-27.65705 17.97708,0 0,110.62817 -40.37929,0 z m 22.40221,-15.6262 0,-51.71869 -20.05136,0 q -4.14856,0 -7.88226,1.24457 -3.59541,1.24457 -6.36112,4.28684 -2.62742,2.90399 -4.28684,7.88226 -1.52114,4.97827 -1.52114,12.44567 0,7.4674 1.52114,12.44567 1.65942,4.97827 4.28684,8.02054 2.76571,2.90404 6.36112,4.14854 3.7337,1.2446 7.88226,1.2446 l 20.05136,0 z"
         style="font-style:normal;font-variant:normal;font-weight:normal;font-stretch:normal;font-size:138.28523254px;line-height:125%;font-family:'SF Fourche';-inkscape-font-specification:'SF Fourche, Normal';text-align:start;writing-mode:lr-tb;text-anchor:start;fill:#ffffff"
         id="path4872" />
      <path
         d="m -283.20352,1019.1049 q -7.32912,0 -13.82853,-2.0743 -6.4994,-2.2125 -11.33939,-7.0525 -4.83998,-4.9783 -7.74397,-12.86053 -2.7657,-7.88226 -2.7657,-19.49822 0,-11.61596 2.7657,-19.49822 2.90399,-7.88226 7.74397,-12.72224 4.83999,-4.97827 11.33939,-7.05255 6.49941,-2.21256 13.82853,-2.21256 l 30.8376,0 0,15.62623 -28.48675,0 q -3.59542,0 -6.77598,0.968 -3.18056,0.82971 -5.80798,2.90399 -2.48914,2.07428 -4.28684,5.53141 -1.79771,3.45713 -2.62742,8.57368 l 47.98497,0 0,15.76452 -47.98497,0 q 0.82971,5.25484 2.62742,8.71197 1.7977,3.45713 4.28684,5.53141 2.62742,2.07431 5.80798,2.90401 3.18056,0.8297 6.77598,0.8297 l 28.48675,0 0,15.6262 -30.8376,0 0,0 z"
         style="font-style:normal;font-variant:normal;font-weight:normal;font-stretch:normal;font-size:138.28523254px;line-height:125%;font-family:'SF Fourche';-inkscape-font-specification:'SF Fourche, Normal';text-align:start;writing-mode:lr-tb;text-anchor:start;fill:#ffffff"
         id="path4874" />
      <path
         d="m -249.33464,936.13378 20.18964,0 25.85934,60.98379 25.85934,-60.98379 20.18964,0 -37.06044,82.97112 -17.97708,0 -37.06044,-82.97112 z"
         style="font-style:normal;font-variant:normal;font-weight:normal;font-stretch:normal;font-size:138.28523254px;line-height:125%;font-family:'SF Fourche';-inkscape-font-specification:'SF Fourche, Normal';text-align:start;writing-mode:lr-tb;text-anchor:start;fill:#ffffff"
         id="path4876" />
      <path
         d="m -151.06421,922.30526 27.93361,0 25.859341,71.77003 25.997624,-71.77003 27.933617,0 0,96.79964 -18.945077,0 0,-67.89803 -24.476486,67.89803 -20.881069,0 -24.06163,-67.89803 0,67.89803 -19.35993,0 0,-96.79964 z"
         style="font-style:normal;font-variant:normal;font-weight:normal;font-stretch:normal;font-size:138.28523254px;line-height:125%;font-family:'SF Fourche';-inkscape-font-specification:'SF Fourche, Normal';text-align:start;writing-mode:lr-tb;text-anchor:start;fill:#ffffff"
         id="path4878" />
      <path
         d="m -30.565902,922.30526 19.359933,0 0,58.07979 q 0,6.36113 1.9359929,10.64797 1.9359932,4.14855 5.2548388,6.77597 3.45713082,2.48911 8.0205435,3.59541 4.5634127,1.1063 9.6799658,1.1063 l 24.891342,0 0,16.5942 -24.891342,0 q -9.1268249,0 -17.1473684,-1.936 -8.0205436,-1.936 -14.1050936,-6.4994 -5.946265,-4.5634 -9.541681,-11.89251 -3.457131,-7.4674 -3.457131,-18.39194 l 0,-58.07979 z"
         style="font-style:normal;font-variant:normal;font-weight:normal;font-stretch:normal;font-size:138.28523254px;line-height:125%;font-family:'SF Fourche';-inkscape-font-specification:'SF Fourche, Normal';text-align:start;writing-mode:lr-tb;text-anchor:start;fill:#ffffff"
         id="path4880" />
    </g>
  </g>
</svg>
